<?xml version="1.0" encoding="utf-8"?>
<!-- Generator: Adobe Illustrator 23.0.5, SVG Export Plug-In . SVG Version: 6.00 Build 0)  -->
<svg version="1.1" id="Layer_1" xmlns="http://www.w3.org/2000/svg" xmlns:xlink="http://www.w3.org/1999/xlink" x="0px" y="0px"
	 viewBox="0 0 3508 2480" style="enable-background:new 0 0 3508 2480;" xml:space="preserve">
<style type="text/css">
	.st0{fill:none;}
	.st1{fill-rule:evenodd;clip-rule:evenodd;fill:#999999;fill-opacity:0.502;}
	.st2{fill-rule:evenodd;clip-rule:evenodd;fill:#523F7F;}
	.st3{fill-rule:evenodd;clip-rule:evenodd;fill-opacity:0.1686;}
</style>
<g id="Layer_x0020_1">
	<rect y="0" class="st0" width="3508" height="2480"/>
	<path class="st1" d="M1231,485c6,0,11,338,11,755s-5,755-11,755s-11-338-11-755S1225,485,1231,485z"/>
	<path class="st2" d="M1621,1167V988l-78,116l-1,1h-1h-2h-1v-1l-78-116v179v2h-2h-46h-2v-2V906v-2h2h49h2v1l78,120l77-120l1-1h1h49
		h2v2v261v2h-2h-46h-2V1167z M1828,902h43h1l1,1l115,263l1,3h-4h-48h-2v-1l-26-62h-120l-26,62l-1,1h-2h-47h-3l1-3l115-263l1-1H1828z
		 M1808,1061h82l-41-96L1808,1061z M2266,1009c2,9,2,18,2,27s0,18-2,27s-4,17-8,26c-3,8-7,15-12,22s-11,14-17,20s-13,11-20,16
		c-8,4-16,9-25,12c-17,7-36,10-57,10h-97h-2v-2V906v-2h2h97c11,0,21,0,30,2c10,2,19,4,27,8c9,3,17,7,25,12c7,4,14,10,20,16
		c6,5,12,12,17,19s9,15,12,23C2262,992,2264,1000,2266,1009z M2214,1055c1-6,2-12,2-18c0-7-1-13-2-18c-1-6-3-12-5-17s-4-10-7-15
		c-3-4-7-9-11-13l0,0c-3-3-8-7-12-10c-5-3-10-6-15-8l0,0c-6-2-12-4-18-5s-12-1-19-1h-49v173h49c7,0,13,0,19-2c7-1,12-2,18-4l0,0
		c5-2,10-5,15-8c4-3,9-6,12-10l0,0c4-4,8-8,11-13c3-4,5-9,7-14C2211,1066,2213,1061,2214,1055z M2322,904h193h2v2v41v3h-2h-146v62
		h129h2v2v42v2h-2h-129v65h147h3v2v42v2h-3h-194h-3v-2V906v-2H2322z M1413,1572v-261v-2h2h45h3v2v261v2h-3h-45h-2V1572z M1575,1310
		l135,174v-173v-2h2h46h2v2v261v2h-2h-38h-2v-1l-140-180v179v2h-2h-45h-3v-2v-261v-2h3h42h1L1575,1310z M2190,1388c7,17,10,34,10,53
		s-3,36-10,53c-3,8-8,16-12,24c-5,7-11,14-17,20s-13,12-20,17s-15,9-24,13c-8,3-17,6-27,8c-9,2-19,3-29,3s-20-1-29-3
		c-10-2-18-5-27-8c-8-4-16-8-24-13c-7-5-13-10-20-17c-6-6-11-12-16-20c-5-7-9-15-12-23c-3-9-6-17-8-26c-1-9-2-18-2-27
		c0-10,1-19,2-27c2-9,5-18,8-26c3-9,8-16,12-24c5-7,11-14,17-20s13-12,20-17s15-9,24-13c8-4,17-6,27-8c9-2,19-3,29-3s20,1,29,3
		c10,2,18,4,27,8c8,4,16,8,24,13c7,5,13,10,20,16c6,7,11,13,16,21C2183,1372,2187,1380,2190,1388z M2141,1477c4-11,6-23,6-35
		c0-6,0-12-1-18s-3-12-5-17c-2-6-5-11-8-16s-6-9-10-13c-3-4-8-8-12-11c-5-3-10-6-15-9c-11-5-22-7-35-7c-6,0-12,1-18,2s-11,3-16,5
		c-11,5-20,11-27,19c-4,4-8,9-10,13c-3,5-6,10-8,16c-2,5-4,11-5,17s-1,12-1,18s0,12,1,18s3,12,5,17c2,6,5,11,8,16c3,4,6,9,10,13
		c3,4,8,8,12,11c5,3,10,6,15,9c11,4,22,7,35,7c6,0,12-1,18-2s11-3,17-5c10-5,19-11,26-19C2131,1497,2137,1488,2141,1477z M2408,1474
		l69,96l2,4h-4h-54h-2v-1l-64-90h-54v89v2h-2h-46h-2v-2v-261v-2h2h117c15,0,28,2,41,6c6,2,12,4,17,7c5,2,10,6,14,9c9,8,15,17,20,27
		c2,6,4,11,5,17s2,12,2,19c0,5,0,11-1,16s-2,9-4,14c-2,4-3,8-6,12l0,0c-2,4-4,8-7,11c-3,4-6,7-9,10c-4,2-7,5-11,7c-4,3-8,5-13,7
		C2415,1472,2412,1473,2408,1474z M2414,1413c2-5,4-10,4-17s-2-13-4-18s-5-9-10-13l0,0c-4-3-10-6-16-8c-6-1-14-2-22-2h-65v83h65
		c8,0,15-1,22-3c6-2,11-5,16-9l0,0C2408,1423,2412,1418,2414,1413z M2758,1414c2,9,3,18,3,27s-1,18-3,27c-1,9-4,17-7,26
		c-4,8-8,15-13,22c-4,7-10,14-16,20c-7,6-13,11-21,16c-7,5-15,9-24,12c-17,7-36,10-57,10h-97h-3v-2v-261v-2h3h97c10,0,20,0,30,2
		c9,2,18,4,27,8c9,3,17,7,24,12c8,4,14,10,21,16c6,5,12,12,16,19c5,7,9,15,13,23C2754,1397,2757,1405,2758,1414z M2707,1460
		c1-6,1-12,1-18c0-7,0-13-1-18c-1-6-3-12-5-17s-5-10-8-15c-3-4-6-9-10-13l0,0c-4-3-8-7-13-10c-4-3-9-6-15-8l0,0c-5-2-11-4-17-5
		s-12-1-19-1h-49v173h49c7,0,13,0,19-1c6-2,12-3,17-5l0,0c6-2,11-5,15-8c5-3,9-6,13-10l0,0c4-4,7-8,10-13c3-4,6-9,8-14
		C2704,1471,2706,1466,2707,1460z M2814,1309h193h3v2v41v3h-3h-145v62h128h3v2v42v2h-3h-128v65h147h2v2v42v2h-2h-195h-2v-2v-261v-2
		H2814z M3219,1474l68,96l3,4h-5h-54h-1l-1-1l-63-90h-54v89v2h-3h-45h-3v-2v-261v-2h3h116c15,0,29,2,41,6c6,2,12,4,17,7
		c6,2,10,6,15,9c8,8,15,17,19,27c3,6,4,11,6,17c1,6,1,12,1,19c0,5,0,11-1,16s-2,9-3,14c-2,4-4,8-6,12l0,0c-2,4-5,8-8,11
		c-3,4-6,7-9,10c-3,2-7,5-11,7c-4,3-8,5-12,7C3226,1472,3222,1473,3219,1474z M3225,1413c2-5,3-10,3-17s-1-13-3-18c-3-5-6-9-10-13
		l0,0c-5-3-10-6-17-8c-6-1-13-2-22-2h-64v83h65c8,0,15-1,21-3s12-5,16-9l0,0C3219,1423,3222,1418,3225,1413z"/>
	<path class="st2" d="M729,1362l1-68c0-11-9-20-21-20l0,0c-12,0-22,9-22,20l-1,56l-29-8v-50c0-11-9-21-21-21l0,0c-12,0-22,10-22,21
		l-1,51l-29,8l1-58c0-11-9-19-21-19l0,0c-11,0-21,8-21,19l-1,69l-28,8l1-73c0-10-9-19-20-19l0,0c-10,0-19,9-20,19l-1,84l-23,7l1-82
		c0-9-8-18-19-18l0,0c-10,0-19,9-19,18l-1,92l0,0l-20,6l1-88c0-8-7-15-16-15l0,0c-9,0-16,7-16,15l-2,97l-16,4l2-92c0-6-5-11-12-11
		l0,0c-6,0-11,5-11,11l-1,98l-13,4l1-91c0-4-3-7-6-7l0,0c-4,0-7,3-7,7l-2,95l-13,3l1-86c0-3-2-5-4-5l0,0c-3,0-5,2-5,5l-1,89l-8,2
		l1-83c-2-23,33-39,57-49c76-33,217-58,362-52c-215-23-407,37-431,92c-6-6-9-15-8-24c3-38,118-67,151-76c132-35,420-45,563,26
		c26,13,107,56,45,81l-1,84l-7-2l1-90c0-2-2-4-5-4l0,0c-3,0-5,2-5,4l-1,88l-11-3l1-96c0-4-3-7-7-7l0,0c-4,0-7,3-7,7l-1,92l-14-4
		l1-98c0-5-5-10-11-10l0,0c-6,0-11,5-11,10l-2,92l-15-5v-1l2-96c0-8-7-15-16-15l0,0c-9,0-16,7-16,15l-1,89l-20-6l1-91
		c0-10-9-19-19-19l0,0c-11,0-20,9-20,19l-1,80l-25-7l1-81c0-11-9-20-21-20l0,0c-11,0-21,9-21,20l-1,70L729,1362z M906,1108
		c17,6,30,32-2,19c-69-29-154-45-255-47c-113-1-209,14-286,47c-15,6-10-10-2-16c4-3,9-6,17-9l2-1c21-84,77-154,171-193l0,0
		c0-9-1-8,16-13c14-4,29-7,44-9l0,0l0,0c34-4,71-1,103,9c15,5,16,3,14,14l5,1c93,39,147,110,166,196C901,1106,904,1107,906,1108z
		 M551,910c-40,18-77,48-109,87c-20,28-35,61-44,98c14-4,27-7,41-11c18-81,64-142,137-182C568,904,559,907,551,910L551,910z
		 M586,900c-36,23-67,55-94,95c-15,25-25,53-32,84c13-3,27-5,40-8c19-71,52-144,110-175C602,897,594,899,586,900z M614,896
		c-48,31-77,105-92,172c16-2,32-4,48-5c7-61,21-132,51-167C619,896,617,896,614,896z M626,895c-23,45-30,108-33,166c12,0,24,0,36-1
		l4-61l7-104C635,895,631,895,626,895z M644,895l4,104l3,62c12,0,23,0,35,1c-1-59-7-122-29-166C653,895,649,895,644,895z M661,896
		c30,35,43,106,48,168c16,1,32,3,48,5c-14-67-41-142-90-173C665,896,663,896,661,896z M670,897c60,29,92,104,109,176c13,2,27,5,40,8
		c-6-31-16-59-30-84c-26-41-57-73-93-96C687,899,679,898,670,897z M704,903c75,40,120,101,136,184c14,4,27,8,41,12
		c-8-38-22-71-42-100c-34-43-73-73-116-92C717,906,711,904,704,903z M578,888c33-12,88-12,120,0c7,2,10-11,2-14c-3-1-7-2-10-3
		c0-21,0-41,0-62c6-2,9-5,9-9c8-35-100-39-115-9c-3,6-1,12,7,18c0,21,0,41,0,61c-5,1-10,3-15,4C569,877,571,890,578,888z M680,803
		L680,803c1,0,2,1,2,3l-1,58c-1,0-3-1-4-1v-57C677,804,678,803,680,803z M601,803L601,803c1,0,2,1,2,3v57c-2,0-4,0-5,1v-58
		C598,804,599,803,601,803z M617,798L617,798c2,0,4,2,4,5v57c-4,1-7,1-10,1l1-58C612,800,614,798,617,798z M639,796L639,796
		c3,0,6,3,6,6v58c-5,0-9,0-14,0l1-58C632,799,635,796,639,796z M662,799L662,799c2,0,4,2,4,4v58c-4,0-7,0-10-1l1-57
		C657,801,659,799,662,799z M941,1195c0,41,0,62,0,62c-121-63-438-69-608,0c0-39,0-60,0-66c0-4,16-15,21-17c62-33,223-65,343-51
		c-154-25-326,19-370,61c-6-10-3-19,7-28c83-44,191-65,325-62c107,0,195,20,268,58C945,1161,974,1179,941,1195z M687,1138L687,1138
		c8,0,14,6,14,13l-1,49l-27-1l1-49C674,1143,680,1137,687,1138z M741,1140L741,1140c7,0,12,6,12,11l-1,52l-23-1l1-52
		C730,1144,735,1140,741,1140z M792,1146L792,1146c5,0,10,5,9,10v53l-20-2l1-53C782,1149,787,1145,792,1146z M837,1154L837,1154
		c5,1,8,4,8,8l-1,55l-15-2l1-55C830,1156,833,1153,837,1154z M874,1164L874,1164c3,1,6,4,6,8v54l-13-3l1-54
		C868,1166,871,1164,874,1164z M905,1175L905,1175c2,0,4,3,4,5l-1,56l-8-3l1-55C901,1175,903,1174,905,1175z M926,1187L926,1187
		c1,1,3,2,3,4l-1,53l-6-3l1-52C923,1187,924,1186,926,1187z M630,1137L630,1137c7,1,12,6,12,13v50l-25-1v-50
		C617,1142,623,1137,630,1137z M572,1139L572,1139c6,0,11,5,11,11v51h-24l1-51C560,1144,565,1139,572,1139z M514,1143L514,1143
		c5,0,10,4,10,9v53l-20,1v-53C504,1148,508,1144,514,1143z M464,1152L464,1152c4-1,8,2,8,7v54l-16,1v-54C456,1155,459,1152,464,1152
		z M425,1160L425,1160c3,0,6,2,6,5v57l-12,1v-56C419,1164,422,1161,425,1160z M390,1171L390,1171c3-1,6,1,6,4v55l-12,1v-54
		C384,1174,387,1171,390,1171z M361,1183L361,1183c3-1,5,1,5,4v52l-10,1v-52C356,1186,358,1183,361,1183z"/>
	<path class="st2" d="M222,1471l414-115l412,115l-4,299H631H218L222,1471z M809,1585l1-63c0-5,1-12,6-15c6-3,19-1,25,0
		c15,2,30,5,46,7c8,2,18,4,24,9c5,4,7,10,7,16l-1,58v58c-1,5-2,11-7,14c-5,4-16,4-23,4l-55-2c-6,0-15-1-19-5c-5-4-5-12-5-18
		L809,1585z M768,1455c-16,9-24,29-24,45l-1,82c-1,27-1,54-1,81c0,16,5,30,18,41c15,12,35,15,55,15c31,1,62,1,93,1c18,0,37-3,53-12
		c13-8,21-18,21-32l1-70l1-70c1-43-30-55-73-65c-30-7-58-15-87-21C806,1446,785,1445,768,1455z M616,1719c21,0,42,0,63,0
		c1-50,2-101,2-151c1-51,2-101,2-151l-47-11l-16,4c-1,51-1,106-2,157S617,1669,616,1719z M282,1721c19,0,39,0,59,0c0-26,0-52,1-78
		c0-25,0-51,1-77c12,15,25,30,37,46c13,16,25,33,38,50h1c13-19,26-39,39-59c14-21,27-42,40-63c-1,30-1,60-1,90c-1,30-1,60-2,90
		c20,0,40,0,60,0c1-49,1-97,2-146l2-149l-63,16c-12,22-27,48-39,69s-24,42-37,62c-11-16-23-32-35-47s-25-32-37-46c-22,6-42,11-63,17
		c-1,37-1,76-2,113C283,1646,282,1684,282,1721z"/>
	<path class="st2" d="M601,774c25-11,59-11,85,0c-4-13-14-23-26-28c2-3,3-6,3-10c0-7-4-13-10-16l2-12c3,0,4-6,2-12l2-2l-2-8
		c-2-10-3-17-4-20c-2-3-4-3-6-2c0,0,0,0-1-1c2-1,0-7-1-7c0-2-1-3-2-4l2,1c0,0,0,0,0-1c0,0-1-1-2-1c1-1,1-1,3-1c-1-1-1-1-2,0l2-2
		l-2,1v-1c0,0-1,0-1,1c-1-1-2-1-2,0c-1-1-2-1-3-1l1,1c-1-1-1-1-1,0c1,0,2,1,2,2c-1,0-2,1-3,1c0,1,0,1,0,2c1-1,2-2,2-2c-1,2-1,3-2,5
		c0,1,0,1,1,1c3,0-4,6,1,8c-1,1-1,1-2,2s-3,5-3,11c-2,2-3,4-4,6c-1,5-1,8,1,10c1,0,1,0,1,0c-1,2,0,3,0,4c0,0,0,1,0,2s0,1,1,2
		c3,6,4,12,4,17c-3,1-6,3-8,6s-4,6-4,10s1,7,3,10C616,751,605,761,601,774z"/>
	<path class="st3" d="M636,1356l412,115l-4,299H636v-51c15,0,29,0,43,0c1-50,2-101,2-151c1-51,2-101,2-151l-47-11V1356z M809,1585
		l1-63c0-5,1-12,6-15c6-3,19-1,25,0c15,2,30,5,46,7c8,2,18,4,24,9c5,4,7,10,7,16l-1,58v58c-1,5-2,11-7,14c-5,4-16,4-23,4l-55-2
		c-6,0-15-1-19-5c-5-4-5-12-5-18L809,1585z M768,1455c-16,9-24,29-24,45l-1,82c-1,27-1,54-1,81c0,16,5,30,18,41c15,12,35,15,55,15
		c31,1,62,1,93,1c18,0,37-3,53-12c13-8,21-18,21-32l1-70l1-70c1-43-30-55-73-65c-30-7-58-15-87-21C806,1446,785,1445,768,1455z
		 M729,1362l1-68c0-11-9-20-21-20l0,0c-12,0-22,9-22,20l-1,56l-29-8v-50c0-11-9-20-21-21v-17c16,0,32,0,49,1c-17-2-33-3-49-4v-31
		c118-1,244,13,324,53c26,13,107,56,45,81l-1,84l-7-2l1-90c0-2-2-4-5-4l0,0c-3,0-5,2-5,4l-1,88l-11-3l1-96c0-4-3-7-7-7l0,0
		c-4,0-7,3-7,7l-1,92l-14-4l1-98c0-5-5-10-11-10l0,0c-6,0-11,5-11,10l-2,92l-15-5v-1l2-96c0-8-7-15-16-15l0,0c-9,0-16,7-16,15l-1,89
		l-20-6l1-91c0-10-9-19-19-19l0,0c-11,0-20,9-20,19l-1,80l-25-7l1-81c0-11-9-20-21-20l0,0c-11,0-21,9-21,20l-1,70L729,1362z
		 M636,1208v-8h6v-50c0-5-2-8-6-11v-19c21,0,42,1,61,3c-20-3-40-5-61-6v-23c8,0,15,0,23,0c107,0,195,20,268,58c18,9,47,27,14,43
		c0,41,0,62,0,62C877,1224,759,1206,636,1208z M636,1080V949l4-54c-1,0-2,0-4,0v-11c27,0,54,3,78,11c15,5,16,3,14,14l5,1
		c93,39,147,110,166,196c2,0,5,1,7,2c17,6,30,32-2,19c-69-29-154-45-255-47C645,1080,641,1080,636,1080z M636,879v-19c3,0,6,0,9,0
		v-58c0-3-3-6-6-6l0,0c-1,0-2,0-3,0v-25c33-1,68,9,63,29c0,4-3,7-9,9c0,21,0,41,0,62c3,1,7,2,10,3c8,3,5,16-2,14
		C682,882,659,879,636,879z M644,895l4,104l3,62c12,0,23,0,35,1c-1-59-7-122-29-166C653,895,649,895,644,895z M661,896
		c30,35,43,106,48,168c16,1,32,3,48,5c-14-67-41-142-90-173C665,896,663,896,661,896z M670,897c60,29,92,104,109,176c13,2,27,5,40,8
		c-6-31-16-59-30-84c-26-41-57-73-93-96C687,899,679,898,670,897z M704,903c75,40,120,101,136,184c14,4,27,8,41,12
		c-8-38-22-71-42-100c-34-43-73-73-116-92C717,906,711,904,704,903z M680,803L680,803c1,0,2,1,2,3l-1,58c-1,0-3-1-4-1v-57
		C677,804,678,803,680,803z M662,799L662,799c2,0,4,2,4,4v58c-4,0-7,0-10-1l1-57C657,801,659,799,662,799z M687,1138L687,1138
		c8,0,14,6,14,13l-1,49l-27-1l1-49C674,1143,680,1137,687,1138z M741,1140L741,1140c7,0,12,6,12,11l-1,52l-23-1l1-52
		C730,1144,735,1140,741,1140z M792,1146L792,1146c5,0,10,5,9,10v53l-20-2l1-53C782,1149,787,1145,792,1146z M837,1154L837,1154
		c5,1,8,4,8,8l-1,55l-15-2l1-55C830,1156,833,1153,837,1154z M874,1164L874,1164c3,1,6,4,6,8v54l-13-3l1-54
		C868,1166,871,1164,874,1164z M905,1175L905,1175c2,0,4,3,4,5l-1,56l-8-3l1-55C901,1175,903,1174,905,1175z M926,1187L926,1187
		c1,1,3,2,3,4l-1,53l-6-3l1-52C923,1187,924,1186,926,1187z"/>
	<path class="st2" d="M636,766c17-1,35,2,50,8c-1-3-2-6-4-9h-46V766z"/>
</g>
</svg>
