<?xml version="1.0" encoding="UTF-8" standalone="no"?><!DOCTYPE svg PUBLIC "-//W3C//DTD SVG 1.1//EN" "http://www.w3.org/Graphics/SVG/1.1/DTD/svg11.dtd"><svg width="100%" height="100%" viewBox="0 0 3072 1122" version="1.1" xmlns="http://www.w3.org/2000/svg" xmlns:xlink="http://www.w3.org/1999/xlink" xml:space="preserve" xmlns:serif="http://www.serif.com/" style="fill-rule:evenodd;clip-rule:evenodd;stroke-linejoin:round;stroke-miterlimit:1.41421;"><g opacity="0.501968"><path d="M1012.82,38.604c4.3,0 7.884,242.266 7.884,541.157c0,298.891 -3.584,541.157 -7.884,541.157c-4.301,0 -7.885,-242.266 -7.885,-541.157c0,-298.891 3.584,-541.157 7.885,-541.157" style="fill:#fff;"/></g><path d="M3007,765c2,-5 3,-10 3,-17c0,-7 -1,-13 -3,-18c-3,-5 -6,-9 -10,-13c-5,-3 -10,-6 -17,-8c-6,-1 -13,-2 -22,-2l-64,0l0,83l65,0c8,0 15,-1 21,-3c6,-2 12,-5 16,-9c5,-3 8,-8 11,-13m-6,61l68,96l3,4l-5,0l-54,0l-1,0l-1,-1l-63,-90l-54,0l0,91l-3,0l-45,0l-3,0l0,-2l0,-261l0,-2l119,0c15,0 29,2 41,6c6,2 12,4 17,7c6,2 10,6 15,9c8,8 15,17 19,27c3,6 4,11 6,17c1,6 1,12 1,19c0,5 0,11 -1,16c-1,5 -2,9 -3,14l-6,12c-2,4 -5,8 -8,11c-3,4 -6,7 -9,10c-3,2 -7,5 -11,7c-4,3 -8,5 -12,7c-3,1 -7,2 -10,3m-405,-165l196,0l0,46l-3,0l-145,0l0,62l131,0l0,46l-3,0l-128,0l0,65l149,0l0,46l-2,0l-195,0l-2,0l0,-2l0,-261l0,-2l2,0Zm-107,151c1,-6 1,-12 1,-18c0,-7 0,-13 -1,-18c-1,-6 -3,-12 -5,-17c-2,-5 -5,-10 -8,-15c-3,-4 -6,-9 -10,-13c-4,-3 -8,-7 -13,-10c-4,-3 -9,-6 -15,-8c-5,-2 -11,-4 -17,-5c-6,-1 -12,-1 -19,-1l-49,0l0,173l49,0c7,0 13,0 19,-1c6,-2 12,-3 17,-5c6,-2 11,-5 15,-8c5,-3 9,-6 13,-10c4,-4 7,-8 10,-13c3,-4 6,-9 8,-14c2,-6 4,-11 5,-17m51,-46c2,9 3,18 3,27c0,9 -1,18 -3,27c-1,9 -4,17 -7,26c-4,8 -8,15 -13,22c-4,7 -10,14 -16,20c-7,6 -13,11 -21,16c-7,5 -15,9 -24,12c-17,7 -36,10 -57,10l-97,0l-3,0l0,-2l0,-261l0,-2l100,0c10,0 20,0 30,2c9,2 18,4 27,8c9,3 17,7 24,12c8,4 14,10 21,16c6,5 12,12 16,19c5,7 9,15 13,23c3,8 6,16 7,25m-344,-1c2,-5 4,-10 4,-17c0,-7 -2,-13 -4,-18c-2,-5 -5,-9 -10,-13c-4,-3 -10,-6 -16,-8c-6,-1 -14,-2 -22,-2l-65,0l0,83l65,0c8,0 15,-1 22,-3c6,-2 11,-5 16,-9c4,-3 8,-8 10,-13m-6,61l69,96l2,4l-4,0l-54,0l-2,0l0,-1l-64,-90l-54,0l0,91l-2,0l-46,0l-2,0l0,-2l0,-261l0,-2l119,0c15,0 28,2 41,6c6,2 12,4 17,7c5,2 10,6 14,9c9,8 15,17 20,27c2,6 4,11 5,17c1,6 2,12 2,19c0,5 0,11 -1,16c-1,5 -2,9 -4,14c-2,4 -3,8 -6,12c-2,4 -4,8 -7,11c-3,4 -6,7 -9,10c-4,2 -7,5 -11,7c-4,3 -8,5 -13,7c-3,1 -6,2 -10,3m-267,3c4,-11 6,-23 6,-35c0,-6 0,-12 -1,-18c-1,-6 -3,-12 -5,-17c-2,-6 -5,-11 -8,-16c-3,-5 -6,-9 -10,-13c-3,-4 -8,-8 -12,-11l-15,-9c-11,-5 -22,-7 -35,-7c-6,0 -12,1 -18,2c-6,1 -11,3 -16,5c-11,5 -20,11 -27,19c-4,4 -8,9 -10,13c-3,5 -6,10 -8,16c-2,5 -4,11 -5,17c-1,6 -1,12 -1,18c0,6 0,12 1,18c1,6 3,12 5,17c2,6 5,11 8,16c3,4 6,9 10,13c3,4 8,8 12,11l15,9c11,4 22,7 35,7c6,0 12,-1 18,-2c6,-1 11,-3 17,-5c10,-5 19,-11 26,-19c8,-9 14,-18 18,-29m49,-89c7,17 10,34 10,53c0,19 -3,36 -10,53c-3,8 -8,16 -12,24c-5,7 -11,14 -17,20c-6,6 -13,12 -20,17c-7,5 -15,9 -24,13c-8,3 -17,6 -27,8c-9,2 -19,3 -29,3c-10,0 -20,-1 -29,-3c-10,-2 -18,-5 -27,-8c-8,-4 -16,-8 -24,-13c-7,-5 -13,-10 -20,-17c-6,-6 -11,-12 -16,-20c-5,-7 -9,-15 -12,-23c-3,-9 -6,-17 -8,-26c-1,-9 -2,-18 -2,-27c0,-10 1,-19 2,-27c2,-9 5,-18 8,-26c3,-9 8,-16 12,-24c5,-7 11,-14 17,-20c6,-6 13,-12 20,-17c7,-5 15,-9 24,-13c8,-4 17,-6 27,-8c9,-2 19,-3 29,-3c10,0 20,1 29,3c10,2 18,4 27,8c8,4 16,8 24,13c7,5 13,10 20,16c6,7 11,13 16,21c5,7 9,15 12,23m-615,-78l135,174l0,-173l0,-2l50,0l0,265l-2,0l-38,0l-2,0l0,-1l-140,-180l0,181l-2,0l-45,0l-3,0l0,-2l0,-261l0,-2l46,0l1,1Zm-162,262l0,-261l0,-2l50,0l0,265l-3,0l-45,0l-2,0l0,-2Zm909,-668l195,0l0,46l-2,0l-146,0l0,62l131,0l0,46l-2,0l-129,0l0,65l150,0l0,46l-3,0l-194,0l-3,0l0,-2l0,-261l0,-2l3,0Zm-108,151c1,-6 2,-12 2,-18c0,-7 -1,-13 -2,-18c-1,-6 -3,-12 -5,-17c-2,-5 -4,-10 -7,-15c-3,-4 -7,-9 -11,-13c-3,-3 -8,-7 -12,-10c-5,-3 -10,-6 -15,-8c-6,-2 -12,-4 -18,-5c-6,-1 -12,-1 -19,-1l-49,0l0,173l49,0c7,0 13,0 19,-2c7,-1 12,-2 18,-4c5,-2 10,-5 15,-8c4,-3 9,-6 12,-10c4,-4 8,-8 11,-13c3,-4 5,-9 7,-14c2,-6 4,-11 5,-17m52,-46c2,9 2,18 2,27c0,9 0,18 -2,27c-2,9 -4,17 -8,26c-3,8 -7,15 -12,22c-5,7 -11,14 -17,20c-6,6 -13,11 -20,16c-8,4 -16,9 -25,12c-17,7 -36,10 -57,10l-97,0l-2,0l0,-2l0,-261l0,-2l99,0c11,0 21,0 30,2c10,2 19,4 27,8c9,3 17,7 25,12c7,4 14,10 20,16c6,5 12,12 17,19c5,7 9,15 12,23c4,8 6,16 8,25m-458,52l82,0l-41,-96l-41,96Zm20,-159l44,0l1,1l115,263l1,3l-4,0l-48,0l-2,0l0,-1l-26,-62l-120,0l-26,62l-1,1l-2,0l-47,0l-3,0l1,-3l115,-263l1,-1l1,0Zm-207,265l0,-179l-78,116l-1,1l-1,0l-2,0l-1,0l0,-1l-78,-116l0,181l-2,0l-46,0l-2,0l0,-2l0,-261l0,-2l53,0l0,1l78,120l77,-120l1,-1l52,0l0,265l-2,0l-46,0l-2,0l0,-2Z" style="fill:#fff;"/><path d="M143,535c3,-1 5,1 5,4l0,52l-10,1l0,-52c0,-2 2,-5 5,-5m29,-12c3,-1 6,1 6,4l0,55l-12,1l0,-54c0,-3 3,-6 6,-6m35,-11c3,0 6,2 6,5l0,57l-12,1l0,-56c0,-3 3,-6 6,-7m39,-8c4,-1 8,2 8,7l0,54l-16,1l0,-54c0,-5 3,-8 8,-8m50,-9c5,0 10,4 10,9l0,53l-20,1l0,-53c0,-5 4,-9 10,-10m58,-4c6,0 11,5 11,11l0,51l-24,0l1,-51c0,-6 5,-11 12,-11m58,-2c7,1 12,6 12,13l0,50l-25,-1l0,-50c0,-7 6,-12 13,-12m296,50c1,1 3,2 3,4l-1,53l-6,-3l1,-52c0,-2 1,-3 3,-2m-21,-12c2,0 4,3 4,5l-1,56l-8,-3l1,-55c0,-3 2,-4 4,-3m-31,-11c3,1 6,4 6,8l0,54l-13,-3l1,-54c0,-3 3,-5 6,-5m-37,-10c5,1 8,4 8,8l-1,55l-15,-2l1,-55c0,-4 3,-7 7,-6m-45,-8c5,0 10,5 9,10l0,53l-20,-2l1,-53c0,-5 5,-9 10,-8m-51,-6c7,0 12,6 12,11l-1,52l-23,-1l1,-52c0,-6 5,-10 11,-10m-54,-2c8,0 14,6 14,13l-1,49l-27,-1l1,-49c0,-7 6,-13 13,-12m254,57l0,62c-121,-63 -438,-69 -608,0l0,-66c0,-4 16,-15 21,-17c62,-33 223,-65 343,-51c-154,-25 -326,19 -370,61c-6,-10 -3,-19 7,-28c83,-44 191,-65 325,-62c107,0 195,20 268,58c18,9 47,27 14,43m-279,-396c2,0 4,2 4,4l0,58c-4,0 -7,0 -10,-1l1,-57c0,-2 2,-4 5,-4m-23,-3c3,0 6,3 6,6l0,58l-14,0l1,-58c0,-3 3,-6 7,-6m-22,2c2,0 4,2 4,5l0,57c-4,1 -7,1 -10,1l1,-58c0,-3 2,-5 5,-5m-16,5c1,0 2,1 2,3l0,57c-2,0 -4,0 -5,1l0,-58c0,-2 1,-3 3,-3m79,0c1,0 2,1 2,3l-1,58c-1,0 -3,-1 -4,-1l0,-57c0,-2 1,-3 3,-3m-102,85c33,-12 88,-12 120,0c7,2 10,-11 2,-14c-3,-1 -7,-2 -10,-3l0,-62c6,-2 9,-5 9,-9c8,-35 -100,-39 -115,-9c-3,6 -1,12 7,18l0,61c-5,1 -10,3 -15,4c-7,3 -5,16 2,14m126,15c75,40 120,101 136,184c14,4 27,8 41,12c-8,-38 -22,-71 -42,-100c-34,-43 -73,-73 -116,-92c-6,-1 -12,-3 -19,-4m-34,-6c60,29 92,104 109,176c13,2 27,5 40,8c-6,-31 -16,-59 -30,-84c-26,-41 -57,-73 -93,-96c-9,-2 -17,-3 -26,-4m-9,-1c30,35 43,106 48,168c16,1 32,3 48,5c-14,-67 -41,-142 -90,-173l-6,0Zm-17,-1l4,104l3,62c12,0 23,0 35,1c-1,-59 -7,-122 -29,-166c-4,-1 -8,-1 -13,-1m-18,0c-23,45 -30,108 -33,166c12,0 24,0 36,-1l4,-61l7,-104l-14,0Zm-12,1c-48,31 -77,105 -92,172c16,-2 32,-4 48,-5c7,-61 21,-132 51,-167l-7,0Zm-28,4c-36,23 -67,55 -94,95c-15,25 -25,53 -32,84c13,-3 27,-5 40,-8c19,-71 52,-144 110,-175c-8,1 -16,3 -24,4m-35,10c-40,18 -77,48 -109,87c-20,28 -35,61 -44,98c14,-4 27,-7 41,-11c18,-81 64,-142 137,-182c-8,2 -17,5 -25,8m355,198c17,6 30,32 -2,19c-69,-29 -154,-45 -255,-47c-113,-1 -209,14 -286,47c-15,6 -10,-10 -2,-16c4,-3 9,-6 17,-9l2,-1c21,-84 77,-154 171,-193c0,-9 -1,-8 16,-13c14,-4 29,-7 44,-9c34,-4 71,-1 103,9c15,5 16,3 14,14l5,1c93,39 147,110 166,196c2,0 5,1 7,2m-177,254l1,-68c0,-11 -9,-20 -21,-20c-12,0 -22,9 -22,20l-1,56l-29,-8l0,-50c0,-11 -9,-21 -21,-21c-12,0 -22,10 -22,21l-1,51l-29,8l1,-58c0,-11 -9,-19 -21,-19c-11,0 -21,8 -21,19l-1,69l-28,8l1,-73c0,-10 -9,-19 -20,-19c-10,0 -19,9 -20,19l-1,84l-23,7l1,-82c0,-9 -8,-18 -19,-18c-10,0 -19,9 -19,18l-1,92l-20,6l1,-88c0,-8 -7,-15 -16,-15c-9,0 -16,7 -16,15l-2,97l-16,4l2,-92c0,-6 -5,-11 -12,-11c-6,0 -11,5 -11,11l-1,98l-13,4l1,-91c0,-4 -3,-7 -6,-7c-4,0 -7,3 -7,7l-2,95l-13,3l1,-86c0,-3 -2,-5 -4,-5c-3,0 -5,2 -5,5l-1,89l-8,2l1,-83c-2,-23 33,-39 57,-49c76,-33 217,-58 362,-52c-215,-23 -407,37 -431,92c-6,-6 -9,-15 -8,-24c3,-38 118,-67 151,-76c132,-35 420,-45 563,26c26,13 107,56 45,81l-1,84l-7,-2l1,-90c0,-2 -2,-4 -5,-4c-3,0 -5,2 -5,4l-1,88l-11,-3l1,-96c0,-4 -3,-7 -7,-7c-4,0 -7,3 -7,7l-1,92l-14,-4l1,-98c0,-5 -5,-10 -11,-10c-6,0 -11,5 -11,10l-2,92l-15,-5l0,-1l2,-96c0,-8 -7,-15 -16,-15c-9,0 -16,7 -16,15l-1,89l-20,-6l1,-91c0,-10 -9,-19 -19,-19c-11,0 -20,9 -20,19l-1,80l-25,-7l1,-81c0,-11 -9,-20 -21,-20c-11,0 -21,9 -21,20l-1,70l-24,-7Z" style="fill:#fff;"/><path d="M64,1073l59,0c0,-26 0,-52 1,-78c0,-25 0,-51 1,-77c12,15 25,30 37,46c13,16 25,33 38,50l1,0c13,-19 26,-39 39,-59c14,-21 27,-42 40,-63c-1,30 -1,60 -1,90c-1,30 -1,60 -2,90l60,0c1,-49 1,-97 2,-146l2,-149l-63,16c-12,22 -27,48 -39,69c-12,21 -24,42 -37,62c-11,-16 -23,-32 -35,-47c-12,-15 -25,-32 -37,-46c-22,6 -42,11 -63,17c-1,37 -1,76 -2,113c0,37 -1,75 -1,112m334,-2l63,0c1,-50 2,-101 2,-151c1,-51 2,-101 2,-151l-47,-11l-16,4c-1,51 -1,106 -2,157c-1,51 -1,102 -2,152m152,-264c-16,9 -24,29 -24,45l-1,82c-1,27 -1,54 -1,81c0,16 5,30 18,41c15,12 35,15 55,15c31,1 62,1 93,1c18,0 37,-3 53,-12c13,-8 21,-18 21,-32l1,-70l1,-70c1,-43 -30,-55 -73,-65c-30,-7 -58,-15 -87,-21c-18,-4 -39,-5 -56,5m41,130l1,-63c0,-5 1,-12 6,-15c6,-3 19,-1 25,0c15,2 30,5 46,7c8,2 18,4 24,9c5,4 7,10 7,16l-1,58l0,58c-1,5 -2,11 -7,14c-5,4 -16,4 -23,4l-55,-2c-6,0 -15,-1 -19,-5c-5,-4 -5,-12 -5,-18l1,-63Zm-587,-114l414,-115l412,115l-4,299l-413,0l-413,0l4,-299Z" style="fill:#fff;"/><path d="M383,126c25,-11 59,-11 85,0c-4,-13 -14,-23 -26,-28c2,-3 3,-6 3,-10c0,-7 -4,-13 -10,-16l2,-12c3,0 4,-6 2,-12l2,-2l-2,-8c-2,-10 -3,-17 -4,-20c-2,-3 -4,-3 -6,-2l-1,-1c2,-1 0,-7 -1,-7c0,-2 -1,-3 -2,-4l2,1l0,-1c0,0 -1,-1 -2,-1c1,-1 1,-1 3,-1c-1,-1 -1,-1 -2,0l2,-2l-2,1l0,-1c0,0 -1,0 -1,1c-1,-1 -2,-1 -2,0c-1,-1 -2,-1 -3,-1l1,1c-1,-1 -1,-1 -1,0c1,0 2,1 2,2c-1,0 -2,1 -3,1l0,2l2,-2c-1,2 -1,3 -2,5c0,1 0,1 1,1c3,0 -4,6 1,8l-2,2c-1,1 -3,5 -3,11c-2,2 -3,4 -4,6c-1,5 -1,8 1,10l1,0c-1,2 0,3 0,4l0,2c0,1 0,1 1,2c3,6 4,12 4,17c-3,1 -6,3 -8,6c-2,3 -4,6 -4,10c0,4 1,7 3,10c-12,5 -23,15 -27,28" style="fill:#fff;"/><g opacity="0.168625"><clipPath id="_clip1"><rect x="418" y="122.93" width="412" height="999.07" clip-rule="nonzero"/></clipPath><g clip-path="url(#_clip1)"><path d="M708,539c1,1 3,2 3,4l-1,53l-6,-3l1,-52c0,-2 1,-3 3,-2m-21,-12c2,0 4,3 4,5l-1,56l-8,-3l1,-55c0,-3 2,-4 4,-3m-31,-11c3,1 6,4 6,8l0,54l-13,-3l1,-54c0,-3 3,-5 6,-5m-37,-10c5,1 8,4 8,8l-1,55l-15,-2l1,-55c0,-4 3,-7 7,-6m-45,-8c5,0 10,5 9,10l0,53l-20,-2l1,-53c0,-5 5,-9 10,-8m-51,-6c7,0 12,6 12,11l-1,52l-23,-1l1,-52c0,-6 5,-10 11,-10m-54,-2c8,0 14,6 14,13l-1,49l-27,-1l1,-49c0,-7 6,-13 13,-12m-25,-339c2,0 4,2 4,4l0,58c-4,0 -7,0 -10,-1l1,-57c0,-2 2,-4 5,-4m18,4c1,0 2,1 2,3l-1,58c-1,0 -3,-1 -4,-1l0,-57c0,-2 1,-3 3,-3m24,100c75,40 120,101 136,184c14,4 27,8 41,12c-8,-38 -22,-71 -42,-100c-34,-43 -73,-73 -116,-92c-6,-1 -12,-3 -19,-4m-34,-6c60,29 92,104 109,176c13,2 27,5 40,8c-6,-31 -16,-59 -30,-84c-26,-41 -57,-73 -93,-96c-9,-2 -17,-3 -26,-4m-9,-1c30,35 43,106 48,168c16,1 32,3 48,5c-14,-67 -41,-142 -90,-173l-6,0Zm-17,-1l4,104l3,62c12,0 23,0 35,1c-1,-59 -7,-122 -29,-166c-4,-1 -8,-1 -13,-1m-8,-16l0,-19l9,0l0,-58c0,-3 -3,-6 -6,-6l-3,0l0,-25c33,-1 68,9 63,29c0,4 -3,7 -9,9l0,62c3,1 7,2 10,3c8,3 5,16 -2,14c-16,-6 -39,-9 -62,-9m0,201l0,-131l4,-54l-4,0l0,-11c27,0 54,3 78,11c15,5 16,3 14,14l5,1c93,39 147,110 166,196c2,0 5,1 7,2c17,6 30,32 -2,19c-69,-29 -154,-45 -255,-47l-13,0Zm0,128l0,-8l6,0l0,-50c0,-5 -2,-8 -6,-11l0,-19c21,0 42,1 61,3c-20,-3 -40,-5 -61,-6l0,-23l23,0c107,0 195,20 268,58c18,9 47,27 14,43l0,62c-64,-33 -182,-51 -305,-49m93,154l1,-68c0,-11 -9,-20 -21,-20c-12,0 -22,9 -22,20l-1,56l-29,-8l0,-50c0,-11 -9,-20 -21,-21l0,-17c16,0 32,0 49,1c-17,-2 -33,-3 -49,-4l0,-31c118,-1 244,13 324,53c26,13 107,56 45,81l-1,84l-7,-2l1,-90c0,-2 -2,-4 -5,-4c-3,0 -5,2 -5,4l-1,88l-11,-3l1,-96c0,-4 -3,-7 -7,-7c-4,0 -7,3 -7,7l-1,92l-14,-4l1,-98c0,-5 -5,-10 -11,-10c-6,0 -11,5 -11,10l-2,92l-15,-5l0,-1l2,-96c0,-8 -7,-15 -16,-15c-9,0 -16,7 -16,15l-1,89l-20,-6l1,-91c0,-10 -9,-19 -19,-19c-11,0 -20,9 -20,19l-1,80l-25,-7l1,-81c0,-11 -9,-20 -21,-20c-11,0 -21,9 -21,20l-1,70l-24,-7Zm39,93c-16,9 -24,29 -24,45l-1,82c-1,27 -1,54 -1,81c0,16 5,30 18,41c15,12 35,15 55,15c31,1 62,1 93,1c18,0 37,-3 53,-12c13,-8 21,-18 21,-32l1,-70l1,-70c1,-43 -30,-55 -73,-65c-30,-7 -58,-15 -87,-21c-18,-4 -39,-5 -56,5m41,130l1,-63c0,-5 1,-12 6,-15c6,-3 19,-1 25,0c15,2 30,5 46,7c8,2 18,4 24,9c5,4 7,10 7,16l-1,58l0,58c-1,5 -2,11 -7,14c-5,4 -16,4 -23,4l-55,-2c-6,0 -15,-1 -19,-5c-5,-4 -5,-12 -5,-18l1,-63Zm-173,-229l412,115l-4,299l-408,0l0,-51l43,0c1,-50 2,-101 2,-151c1,-51 2,-101 2,-151l-47,-11l0,-50Z" style="fill:#fff;"/></g></g><path d="M418,118c17,-1 35,2 50,8c-1,-3 -2,-6 -4,-9l-46,0l0,1Z" style="fill:#fff;"/></svg>